<mxfile host="65bd71144e">
    <diagram id="ZNQ7dfp9pY2uOykUGSOy" name="PÃ¡gina-1">
        <mxGraphModel dx="3401" dy="662" grid="1" gridSize="10" guides="1" tooltips="1" connect="1" arrows="1" fold="1" page="1" pageScale="1" pageWidth="2339" pageHeight="3300" math="0" shadow="0">
            <root>
                <mxCell id="0"/>
                <mxCell id="1" parent="0"/>
                <mxCell id="3" value="INICIO" style="ellipse;whiteSpace=wrap;html=1;fillColor=#fa6800;fontColor=#000000;strokeColor=#C73500;" parent="1" vertex="1">
                    <mxGeometry x="230" y="760" width="100" height="40" as="geometry"/>
                </mxCell>
                <mxCell id="4" value="" style="endArrow=classic;html=1;exitX=0.5;exitY=1;exitDx=0;exitDy=0;" parent="1" source="3" edge="1">
                    <mxGeometry width="50" height="50" relative="1" as="geometry">
                        <mxPoint x="300" y="980" as="sourcePoint"/>
                        <mxPoint x="280" y="850" as="targetPoint"/>
                    </mxGeometry>
                </mxCell>
                <mxCell id="5" value="gasto del agua" style="shape=parallelogram;perimeter=parallelogramPerimeter;whiteSpace=wrap;html=1;fixedSize=1;fillColor=#f0a30a;fontColor=#000000;strokeColor=#BD7000;" parent="1" vertex="1">
                    <mxGeometry x="220" y="850" width="120" height="40" as="geometry"/>
                </mxCell>
                <mxCell id="6" value="" style="endArrow=none;html=1;entryX=0.5;entryY=1;entryDx=0;entryDy=0;" parent="1" target="5" edge="1">
                    <mxGeometry width="50" height="50" relative="1" as="geometry">
                        <mxPoint x="280" y="940" as="sourcePoint"/>
                        <mxPoint x="350" y="930" as="targetPoint"/>
                    </mxGeometry>
                </mxCell>
                <mxCell id="7" value="cuota_fija = 10000" style="rounded=0;whiteSpace=wrap;html=1;fillColor=#a0522d;fontColor=#ffffff;strokeColor=#6D1F00;" parent="1" vertex="1">
                    <mxGeometry x="220" y="940" width="120" height="50" as="geometry"/>
                </mxCell>
                <mxCell id="8" value="" style="endArrow=classic;html=1;exitX=0.5;exitY=1;exitDx=0;exitDy=0;" parent="1" source="7" edge="1">
                    <mxGeometry width="50" height="50" relative="1" as="geometry">
                        <mxPoint x="300" y="1130" as="sourcePoint"/>
                        <mxPoint x="280" y="1050" as="targetPoint"/>
                    </mxGeometry>
                </mxCell>
                <mxCell id="9" value="gasto&amp;lt;=50&lt;sup&gt;3&lt;/sup&gt;" style="rhombus;whiteSpace=wrap;html=1;fillColor=#6d8764;fontColor=#ffffff;strokeColor=#3A5431;" parent="1" vertex="1">
                    <mxGeometry x="240" y="1050" width="80" height="80" as="geometry"/>
                </mxCell>
                <mxCell id="10" value="" style="endArrow=classic;html=1;exitX=1;exitY=0.5;exitDx=0;exitDy=0;" parent="1" source="9" edge="1">
                    <mxGeometry width="50" height="50" relative="1" as="geometry">
                        <mxPoint x="300" y="1130" as="sourcePoint"/>
                        <mxPoint x="480" y="1120" as="targetPoint"/>
                        <Array as="points">
                            <mxPoint x="480" y="1090"/>
                        </Array>
                    </mxGeometry>
                </mxCell>
                <mxCell id="11" value="" style="endArrow=classic;html=1;exitX=0;exitY=0.5;exitDx=0;exitDy=0;" parent="1" source="9" edge="1">
                    <mxGeometry width="50" height="50" relative="1" as="geometry">
                        <mxPoint x="70" y="1120" as="sourcePoint"/>
                        <mxPoint x="80" y="1120" as="targetPoint"/>
                        <Array as="points">
                            <mxPoint x="80" y="1090"/>
                            <mxPoint x="80" y="1110"/>
                        </Array>
                    </mxGeometry>
                </mxCell>
                <mxCell id="12" value="FALSE" style="text;html=1;align=center;verticalAlign=middle;resizable=0;points=[];autosize=1;strokeColor=none;fillColor=none;" parent="1" vertex="1">
                    <mxGeometry x="140" y="1065" width="60" height="30" as="geometry"/>
                </mxCell>
                <mxCell id="13" value="TRUE" style="text;html=1;align=center;verticalAlign=middle;resizable=0;points=[];autosize=1;strokeColor=none;fillColor=none;" parent="1" vertex="1">
                    <mxGeometry x="340" y="1055" width="60" height="30" as="geometry"/>
                </mxCell>
                <mxCell id="14" value="gasto&amp;gt;200&lt;sup&gt;3&lt;/sup&gt;" style="rhombus;whiteSpace=wrap;html=1;fillColor=#6d8764;fontColor=#ffffff;strokeColor=#3A5431;" parent="1" vertex="1">
                    <mxGeometry x="30" y="1120" width="100" height="90" as="geometry"/>
                </mxCell>
                <mxCell id="15" value="GRATIS" style="rounded=0;whiteSpace=wrap;html=1;fillColor=#76608a;fontColor=#ffffff;strokeColor=#432D57;" parent="1" vertex="1">
                    <mxGeometry x="420" y="1120" width="120" height="60" as="geometry"/>
                </mxCell>
                <mxCell id="16" value="" style="endArrow=none;html=1;entryX=1;entryY=0.5;entryDx=0;entryDy=0;" parent="1" target="14" edge="1">
                    <mxGeometry width="50" height="50" relative="1" as="geometry">
                        <mxPoint x="280" y="1240" as="sourcePoint"/>
                        <mxPoint x="290" y="1150" as="targetPoint"/>
                        <Array as="points">
                            <mxPoint x="280" y="1165"/>
                        </Array>
                    </mxGeometry>
                </mxCell>
                <mxCell id="17" value="" style="endArrow=none;html=1;entryX=0;entryY=0.5;entryDx=0;entryDy=0;" parent="1" target="14" edge="1">
                    <mxGeometry width="50" height="50" relative="1" as="geometry">
                        <mxPoint x="-120" y="1240" as="sourcePoint"/>
                        <mxPoint x="20" y="1170" as="targetPoint"/>
                        <Array as="points">
                            <mxPoint x="-120" y="1165"/>
                        </Array>
                    </mxGeometry>
                </mxCell>
                <mxCell id="18" value="m&lt;sup&gt;3&amp;nbsp;&lt;/sup&gt;&amp;nbsp;gastados *2000" style="rounded=0;whiteSpace=wrap;html=1;fillColor=#76608a;fontColor=#ffffff;strokeColor=#432D57;" parent="1" vertex="1">
                    <mxGeometry x="-180" y="1240" width="120" height="60" as="geometry"/>
                </mxCell>
                <mxCell id="19" value="(m-50)*3000" style="rounded=0;whiteSpace=wrap;html=1;fillColor=#76608a;fontColor=#ffffff;strokeColor=#432D57;" parent="1" vertex="1">
                    <mxGeometry x="220" y="1220" width="120" height="60" as="geometry"/>
                </mxCell>
                <mxCell id="20" value="" style="endArrow=none;html=1;entryX=0.5;entryY=1;entryDx=0;entryDy=0;exitX=0.5;exitY=1;exitDx=0;exitDy=0;" parent="1" source="15" target="18" edge="1">
                    <mxGeometry width="50" height="50" relative="1" as="geometry">
                        <mxPoint x="500" y="1270" as="sourcePoint"/>
                        <mxPoint x="-120" y="1340" as="targetPoint"/>
                        <Array as="points">
                            <mxPoint x="480" y="1400"/>
                            <mxPoint x="280" y="1400"/>
                            <mxPoint x="-120" y="1400"/>
                        </Array>
                    </mxGeometry>
                </mxCell>
                <mxCell id="21" value="" style="endArrow=none;html=1;entryX=0.5;entryY=1;entryDx=0;entryDy=0;" parent="1" target="19" edge="1">
                    <mxGeometry width="50" height="50" relative="1" as="geometry">
                        <mxPoint x="280" y="1400" as="sourcePoint"/>
                        <mxPoint x="380" y="1310" as="targetPoint"/>
                    </mxGeometry>
                </mxCell>
                <mxCell id="22" value="" style="endArrow=none;html=1;" edge="1" parent="1">
                    <mxGeometry width="50" height="50" relative="1" as="geometry">
                        <mxPoint x="240" y="1480" as="sourcePoint"/>
                        <mxPoint x="240" y="1400" as="targetPoint"/>
                    </mxGeometry>
                </mxCell>
                <mxCell id="23" value="resultado + cuota_fija" style="rounded=0;whiteSpace=wrap;html=1;fillColor=#647687;fontColor=#ffffff;strokeColor=#314354;" vertex="1" parent="1">
                    <mxGeometry x="180" y="1480" width="120" height="50" as="geometry"/>
                </mxCell>
                <mxCell id="24" value="" style="endArrow=none;html=1;" edge="1" parent="1">
                    <mxGeometry width="50" height="50" relative="1" as="geometry">
                        <mxPoint x="240" y="1600" as="sourcePoint"/>
                        <mxPoint x="240" y="1530" as="targetPoint"/>
                    </mxGeometry>
                </mxCell>
                <mxCell id="25" value="gasto final" style="rounded=0;whiteSpace=wrap;html=1;fillColor=#e51400;fontColor=#ffffff;strokeColor=#B20000;" vertex="1" parent="1">
                    <mxGeometry x="180" y="1600" width="120" height="50" as="geometry"/>
                </mxCell>
                <mxCell id="26" value="" style="endArrow=classic;html=1;exitX=0.5;exitY=1;exitDx=0;exitDy=0;" edge="1" parent="1" source="25">
                    <mxGeometry width="50" height="50" relative="1" as="geometry">
                        <mxPoint x="220" y="1740" as="sourcePoint"/>
                        <mxPoint x="240" y="1720" as="targetPoint"/>
                    </mxGeometry>
                </mxCell>
                <mxCell id="27" value="FINAL" style="ellipse;whiteSpace=wrap;html=1;fillColor=#6a00ff;fontColor=#ffffff;strokeColor=#3700CC;" vertex="1" parent="1">
                    <mxGeometry x="195" y="1720" width="90" height="50" as="geometry"/>
                </mxCell>
            </root>
        </mxGraphModel>
    </diagram>
</mxfile>